<svg xmlns="http://www.w3.org/2000/svg" xmlns:xlink="http://www.w3.org/1999/xlink" width="1005.25" height="1005.25" viewBox="0 0 1005.25 1005.25">
  <defs>
    <style>
      .cls-1 {
        fill: url(#linear-gradient);
      }

      .cls-2 {
        fill: #282642;
      }
    </style>
    <linearGradient id="linear-gradient" x1="147.22" y1="858.03" x2="858.03" y2="147.22" gradientUnits="userSpaceOnUse">
      <stop offset="0" stop-color="#edd4de"/>
      <stop offset="1" stop-color="#d6e4fc"/>
    </linearGradient>
  </defs>
  <title>Asset 8</title>
  <g id="Layer_2" data-name="Layer 2">
    <g id="Layer_2-2" data-name="Layer 2">
      <circle class="cls-1" cx="502.63" cy="502.63" r="502.63"/>
    </g>
    <g id="Layer_3" data-name="Layer 3">
      <path class="cls-2" d="M537.28,662.21a86.37,86.37,0,0,0,27-14.11,64.36,64.36,0,0,0,18-22,56.33,56.33,0,0,0,5.61-28.64H696.66a134.06,134.06,0,0,1-14.32,64.75A159.87,159.87,0,0,1,641,713.67q-26.14,21.58-60.8,33.83A218.37,218.37,0,0,1,507,759.74q-52.29,0-91.72-17.64t-65.58-48.35q-26.56-30.71-40.05-72t-13.49-88.61V520.68q0-47.31,13.28-88.61t39.85-72q26.55-30.71,65.78-48.56t91.1-17.85q41.51,0,76.79,12.45T644,341a159.49,159.49,0,0,1,39.43,55q14.1,32.18,13.28,72H587.92a75.74,75.74,0,0,0-5-31.54,71.11,71.11,0,0,0-17-25.74,84.42,84.42,0,0,0-27-17.22A90.36,90.36,0,0,0,504.49,387q-27.39,0-45.24,11.2A81.17,81.17,0,0,0,431,428.13q-10.8,18.67-15.15,42.74a279.71,279.71,0,0,0-4.36,49.81v12.45a299.68,299.68,0,0,0,4.15,50.43q4.15,24.27,14.95,42.54A80.65,80.65,0,0,0,459.05,656q18,11.21,45.86,11.21A104.3,104.3,0,0,0,537.28,662.21Z"/>
    </g>
  </g>
</svg>
