<?xml version="1.0" encoding="UTF-8"?>
<svg id="Layer_2" data-name="Layer 2" xmlns="http://www.w3.org/2000/svg" viewBox="0 0 556.16 175.5">
  <defs>
    <style>
      .cls-1 {
        fill: none;
      }

      .cls-1, .cls-2 {
        stroke-width: 0px;
      }

      .cls-2 {
        fill: #fff;
      }
    </style>
  </defs>
  <g id="pronto_a_exportar" data-name="pronto a exportar">
    <rect class="cls-1" width="556.16" height="175.5"/>
    <g>
      <path class="cls-2" d="M140.45,35.25v105H35.45V35.25h105M146.45,29.25H29.45v117h117V29.25h0Z"/>
      <g>
        <path class="cls-2" d="M123.11,64c-4.99-5.82-18.47-2.45-30.12,7.53-1.84,1.58-3.52,3.23-5.04,4.91-1.51-1.68-3.2-3.33-5.04-4.91-11.64-9.98-25.13-13.35-30.12-7.53-4.99,5.82.4,18.63,12.05,28.61,2.56,2.19,5.2,4.06,7.82,5.58-.14.16-.29.32-.43.49-6.64,7.91-8.88,17.07-5.01,20.46,3.87,3.39,12.39-.27,19.03-8.18.61-.72,1.16-1.46,1.69-2.2.53.74,1.09,1.47,1.69,2.2,6.64,7.91,15.15,11.57,19.03,8.18,3.87-3.39,1.63-12.55-5.01-20.46-.14-.17-.29-.33-.43-.49,2.62-1.52,5.27-3.39,7.82-5.58,11.64-9.98,17.04-22.79,12.05-28.61Z"/>
        <circle class="cls-2" cx="87.95" cy="61.15" r="6.07"/>
      </g>
    </g>
    <g>
      <path class="cls-2" d="M192.62,77.73c-3.2,0-6.08-.71-8.64-2.13-2.56-1.42-4.58-3.34-6.06-5.76-1.48-2.42-2.22-5.13-2.22-8.13s.74-5.76,2.22-8.16c1.48-2.4,3.5-4.31,6.06-5.73,2.56-1.42,5.44-2.13,8.64-2.13s6.16.68,8.76,2.04c2.6,1.36,4.62,3.16,6.06,5.4l-7.32,5.34c-.68-1.4-1.68-2.5-3-3.3-1.32-.8-2.8-1.2-4.44-1.2-1.4,0-2.65.34-3.75,1.02-1.1.68-1.97,1.6-2.61,2.76-.64,1.16-.96,2.48-.96,3.96s.32,2.8.96,3.96c.64,1.16,1.51,2.08,2.61,2.76,1.1.68,2.35,1.02,3.75,1.02,1.64,0,3.12-.41,4.44-1.23,1.32-.82,2.32-1.91,3-3.27l7.32,5.34c-1.44,2.24-3.46,4.04-6.06,5.4-2.6,1.36-5.52,2.04-8.76,2.04Z"/>
      <path class="cls-2" d="M222.86,77.13v-7.5h6.72v-15.96h-6.72v-7.5h16.44v7.8c1.12-2.84,2.53-4.93,4.23-6.27,1.7-1.34,3.63-2.01,5.79-2.01.92,0,1.65.06,2.19.18.54.12,1.19.36,1.95.72v8.7c-.76-.36-1.67-.63-2.73-.81-1.06-.18-2.11-.27-3.15-.27-1.68,0-3.26.37-4.74,1.11-1.48.74-2.66,1.75-3.54,3.03v11.28h7.08v7.5h-23.52Z"/>
      <path class="cls-2" d="M291.5,77.73c-4.28,0-7.52-1.02-9.72-3.06s-3.3-5.06-3.3-9.06v-11.94h-10.68v-7.5h20.4v18.42c0,1.72.42,2.98,1.26,3.78.84.8,2.18,1.2,4.02,1.2.88,0,1.73-.08,2.55-.24.82-.16,1.73-.44,2.73-.84v7.86c-.64.32-1.68.63-3.12.93-1.44.3-2.82.45-4.14.45ZM283.34,41.49c-1.68,0-3.12-.6-4.32-1.8-1.2-1.2-1.8-2.64-1.8-4.32s.6-3.12,1.8-4.32c1.2-1.2,2.64-1.8,4.32-1.8s3.12.6,4.32,1.8c1.2,1.2,1.8,2.64,1.8,4.32s-.6,3.12-1.8,4.32c-1.2,1.2-2.64,1.8-4.32,1.8Z"/>
      <path class="cls-2" d="M329,77.73c-3,0-5.79-.39-8.37-1.17-2.58-.78-4.79-1.85-6.63-3.21l4.5-6.24c2.28,1.32,4.21,2.23,5.79,2.73,1.58.5,3.17.75,4.77.75,1.88,0,3.31-.22,4.29-.66.98-.44,1.47-1.06,1.47-1.86,0-.64-.35-1.14-1.05-1.5-.7-.36-1.62-.65-2.76-.87-1.14-.22-2.39-.45-3.75-.69-1.36-.24-2.73-.55-4.11-.93-1.38-.38-2.64-.91-3.78-1.59-1.14-.68-2.06-1.57-2.76-2.67-.7-1.1-1.05-2.49-1.05-4.17,0-2.2.56-4.04,1.68-5.52,1.12-1.48,2.71-2.61,4.77-3.39,2.06-.78,4.45-1.17,7.17-1.17,2.4,0,4.82.34,7.26,1.02,2.44.68,4.68,1.72,6.72,3.12l-4.68,5.94c-1.56-1.04-3.15-1.8-4.77-2.28-1.62-.48-3.21-.72-4.77-.72s-2.81.19-3.63.57c-.82.38-1.23.91-1.23,1.59,0,.64.35,1.13,1.05,1.47.7.34,1.64.61,2.82.81,1.18.2,2.47.41,3.87.63,1.4.22,2.79.52,4.17.9,1.38.38,2.66.92,3.84,1.62,1.18.7,2.12,1.61,2.82,2.73.7,1.12,1.05,2.56,1.05,4.32,0,2.12-.65,3.96-1.95,5.52s-3.06,2.77-5.28,3.63c-2.22.86-4.71,1.29-7.47,1.29Z"/>
      <path class="cls-2" d="M380.96,77.73c-4.32,0-7.58-.97-9.78-2.91-2.2-1.94-3.3-4.81-3.3-8.61v-12.54h-9.06v-7.5h9.06v-8.58l9.72-1.98v10.56h11.7v7.5h-11.7v10.62c0,1.96.39,3.33,1.17,4.11s2.15,1.17,4.11,1.17c.88,0,1.82-.06,2.82-.18,1-.12,2.26-.38,3.78-.78v7.86c-1.2.32-2.59.61-4.17.87s-3.03.39-4.35.39Z"/>
      <path class="cls-2" d="M429.2,77.73c-4.28,0-7.52-1.02-9.72-3.06-2.2-2.04-3.3-5.06-3.3-9.06v-11.94h-10.68v-7.5h20.4v18.42c0,1.72.42,2.98,1.26,3.78.84.8,2.18,1.2,4.02,1.2.88,0,1.73-.08,2.55-.24.82-.16,1.73-.44,2.73-.84v7.86c-.64.32-1.68.63-3.12.93-1.44.3-2.82.45-4.14.45ZM421.04,41.49c-1.68,0-3.12-.6-4.32-1.8-1.2-1.2-1.8-2.64-1.8-4.32s.6-3.12,1.8-4.32c1.2-1.2,2.64-1.8,4.32-1.8s3.12.6,4.32,1.8c1.2,1.2,1.8,2.64,1.8,4.32s-.6,3.12-1.8,4.32c-1.2,1.2-2.64,1.8-4.32,1.8Z"/>
      <path class="cls-2" d="M452.42,77.13v-30.96h9.72v4.2c2.4-3.12,5.46-4.68,9.18-4.68,2,0,3.77.45,5.31,1.35,1.54.9,2.75,2.14,3.63,3.72.88,1.58,1.32,3.41,1.32,5.49v20.88h-9.72v-18.06c0-1.76-.47-3.16-1.41-4.2-.94-1.04-2.19-1.56-3.75-1.56-.88,0-1.7.15-2.46.45-.76.3-1.46.77-2.1,1.41v21.96h-9.72Z"/>
      <path class="cls-2" d="M508.28,77.61c-2.08,0-3.93-.4-5.55-1.2-1.62-.8-2.88-1.9-3.78-3.3-.9-1.4-1.35-3.02-1.35-4.86s.48-3.55,1.44-4.89c.96-1.34,2.34-2.36,4.14-3.06,1.8-.7,3.96-1.05,6.48-1.05,1.12,0,2.26.12,3.42.36,1.16.24,2.42.64,3.78,1.2v-2.64c0-1.52-.5-2.65-1.5-3.39-1-.74-2.54-1.11-4.62-1.11-1.16,0-2.45.19-3.87.57-1.42.38-3.03.95-4.83,1.71l-3.48-6.9c2.6-1.16,5.07-2.01,7.41-2.55s4.65-.81,6.93-.81c4.28,0,7.61,1.02,9.99,3.06s3.57,4.9,3.57,8.58v19.8h-9.6v-2.94c-1.36,1.2-2.72,2.07-4.08,2.61-1.36.54-2.86.81-4.5.81ZM506.54,68.07c0,1,.42,1.77,1.26,2.31s2,.81,3.48.81c1.04,0,2.03-.15,2.97-.45.94-.3,1.81-.73,2.61-1.29v-3.66c-.88-.24-1.77-.43-2.67-.57-.9-.14-1.79-.21-2.67-.21-1.56,0-2.78.26-3.66.78-.88.52-1.32,1.28-1.32,2.28Z"/>
    </g>
    <g>
      <path class="cls-2" d="M192.62,146.25c-3.2,0-6.08-.71-8.64-2.13-2.56-1.42-4.58-3.34-6.06-5.76-1.48-2.42-2.22-5.13-2.22-8.13s.74-5.76,2.22-8.16c1.48-2.4,3.5-4.31,6.06-5.73,2.56-1.42,5.44-2.13,8.64-2.13s6.16.68,8.76,2.04c2.6,1.36,4.62,3.16,6.06,5.4l-7.32,5.34c-.68-1.4-1.68-2.5-3-3.3-1.32-.8-2.8-1.2-4.44-1.2-1.4,0-2.65.34-3.75,1.02-1.1.68-1.97,1.6-2.61,2.76-.64,1.16-.96,2.48-.96,3.96s.32,2.8.96,3.96c.64,1.16,1.51,2.08,2.61,2.76,1.1.68,2.35,1.02,3.75,1.02,1.64,0,3.12-.41,4.44-1.23,1.32-.82,2.32-1.91,3-3.27l7.32,5.34c-1.44,2.24-3.46,4.04-6.06,5.4-2.6,1.36-5.52,2.04-8.76,2.04Z"/>
      <path class="cls-2" d="M222.56,145.65v-7.5h6.72v-15.96h-6.72v-7.5h16.44v7.8c1.12-2.84,2.53-4.93,4.23-6.27,1.7-1.34,3.63-2.01,5.79-2.01.92,0,1.65.06,2.19.18.54.12,1.19.36,1.95.72v8.7c-.76-.36-1.67-.63-2.73-.81-1.06-.18-2.11-.27-3.15-.27-1.68,0-3.26.37-4.74,1.11-1.48.74-2.66,1.75-3.54,3.03v11.28h7.08v7.5h-23.52Z"/>
      <path class="cls-2" d="M283.58,146.25c-3.12,0-5.93-.71-8.43-2.13-2.5-1.42-4.49-3.34-5.97-5.76-1.48-2.42-2.22-5.13-2.22-8.13s.7-5.76,2.1-8.16,3.3-4.31,5.7-5.73c2.4-1.42,5.1-2.13,8.1-2.13s5.87.7,8.25,2.1c2.38,1.4,4.24,3.33,5.58,5.79s2.01,5.29,2.01,8.49v2.1h-22.2c.32,1.16.84,2.18,1.56,3.06.72.88,1.6,1.56,2.64,2.04,1.04.48,2.16.72,3.36.72,1.4,0,2.67-.26,3.81-.78,1.14-.52,2.09-1.26,2.85-2.22l6.24,5.58c-1.96,1.88-4.01,3.21-6.15,3.99-2.14.78-4.55,1.17-7.23,1.17ZM276.56,127.17h13.14c-.28-1.16-.72-2.14-1.32-2.94-.6-.8-1.34-1.41-2.22-1.83-.88-.42-1.88-.63-3-.63s-2.07.21-2.97.63c-.9.42-1.65,1.03-2.25,1.83-.6.8-1.06,1.78-1.38,2.94Z"/>
      <path class="cls-2" d="M323.78,146.13c-2.08,0-3.93-.4-5.55-1.2-1.62-.8-2.88-1.9-3.78-3.3-.9-1.4-1.35-3.02-1.35-4.86s.48-3.55,1.44-4.89c.96-1.34,2.34-2.36,4.14-3.06,1.8-.7,3.96-1.05,6.48-1.05,1.12,0,2.26.12,3.42.36,1.16.24,2.42.64,3.78,1.2v-2.64c0-1.52-.5-2.65-1.5-3.39-1-.74-2.54-1.11-4.62-1.11-1.16,0-2.45.19-3.87.57-1.42.38-3.03.95-4.83,1.71l-3.48-6.9c2.6-1.16,5.07-2.01,7.41-2.55s4.65-.81,6.93-.81c4.28,0,7.61,1.02,9.99,3.06,2.38,2.04,3.57,4.9,3.57,8.58v19.8h-9.6v-2.94c-1.36,1.2-2.72,2.07-4.08,2.61-1.36.54-2.86.81-4.5.81ZM322.04,136.59c0,1,.42,1.77,1.26,2.31s2,.81,3.48.81c1.04,0,2.03-.15,2.97-.45.94-.3,1.81-.73,2.61-1.29v-3.66c-.88-.24-1.77-.43-2.67-.57-.9-.14-1.79-.21-2.67-.21-1.56,0-2.78.26-3.66.78-.88.52-1.32,1.28-1.32,2.28Z"/>
      <path class="cls-2" d="M379.76,146.25c-4.32,0-7.58-.97-9.78-2.91-2.2-1.94-3.3-4.81-3.3-8.61v-12.54h-9.06v-7.5h9.06v-8.58l9.72-1.98v10.56h11.7v7.5h-11.7v10.62c0,1.96.39,3.33,1.17,4.11s2.15,1.17,4.11,1.17c.88,0,1.82-.06,2.82-.18,1-.12,2.26-.38,3.78-.78v7.86c-1.2.32-2.59.61-4.17.87-1.58.26-3.03.39-4.35.39Z"/>
      <path class="cls-2" d="M427.7,146.25c-4.28,0-7.52-1.02-9.72-3.06-2.2-2.04-3.3-5.06-3.3-9.06v-11.94h-10.68v-7.5h20.4v18.42c0,1.72.42,2.98,1.26,3.78.84.8,2.18,1.2,4.02,1.2.88,0,1.73-.08,2.55-.24.82-.16,1.73-.44,2.73-.84v7.86c-.64.32-1.68.63-3.12.93-1.44.3-2.82.45-4.14.45ZM419.54,110.01c-1.68,0-3.12-.6-4.32-1.8-1.2-1.2-1.8-2.64-1.8-4.32s.6-3.12,1.8-4.32c1.2-1.2,2.64-1.8,4.32-1.8s3.12.6,4.32,1.8c1.2,1.2,1.8,2.64,1.8,4.32s-.6,3.12-1.8,4.32c-1.2,1.2-2.64,1.8-4.32,1.8Z"/>
      <path class="cls-2" d="M460.28,145.65l-12.54-30.96h10.56l7.02,19.44,7.08-19.44h10.02l-12.66,30.96h-9.48Z"/>
      <path class="cls-2" d="M511.58,146.25c-3.12,0-5.93-.71-8.43-2.13-2.5-1.42-4.49-3.34-5.97-5.76-1.48-2.42-2.22-5.13-2.22-8.13s.7-5.76,2.1-8.16c1.4-2.4,3.3-4.31,5.7-5.73,2.4-1.42,5.1-2.13,8.1-2.13s5.87.7,8.25,2.1c2.38,1.4,4.24,3.33,5.58,5.79,1.34,2.46,2.01,5.29,2.01,8.49v2.1h-22.2c.32,1.16.84,2.18,1.56,3.06.72.88,1.6,1.56,2.64,2.04s2.16.72,3.36.72c1.4,0,2.67-.26,3.81-.78,1.14-.52,2.09-1.26,2.85-2.22l6.24,5.58c-1.96,1.88-4.01,3.21-6.15,3.99-2.14.78-4.55,1.17-7.23,1.17ZM504.56,127.17h13.14c-.28-1.16-.72-2.14-1.32-2.94-.6-.8-1.34-1.41-2.22-1.83s-1.88-.63-3-.63-2.07.21-2.97.63-1.65,1.03-2.25,1.83c-.6.8-1.06,1.78-1.38,2.94Z"/>
    </g>
  </g>
</svg>