<?xml version="1.0" standalone="no"?>
<!DOCTYPE svg PUBLIC "-//W3C//DTD SVG 20010904//EN"
 "http://www.w3.org/TR/2001/REC-SVG-20010904/DTD/svg10.dtd">
<svg version="1.0" xmlns="http://www.w3.org/2000/svg"
 width="700.000000pt" height="700.000000pt" viewBox="0 0 700.000000 700.000000"
 preserveAspectRatio="xMidYMid meet">
<metadata>
Created by potrace 1.14, written by Peter Selinger 2001-2017
</metadata>
<g transform="translate(0.000000,700.000000) scale(0.100000,-0.100000)"
fill="#000000" stroke="none">
<path d="M3390 4950 c-358 -25 -659 -157 -895 -394 -289 -290 -435 -701 -435
-1221 0 -575 181 -1027 521 -1309 193 -159 397 -250 669 -298 115 -20 452 -17
565 6 585 117 1002 524 1032 1009 l6 97 -380 0 -380 0 -5 -67 c-13 -183 -174
-342 -401 -398 -87 -21 -251 -21 -341 -1 -154 36 -279 138 -359 293 -86 166
-117 343 -117 661 0 308 31 486 112 651 77 158 223 278 376 310 75 15 235 13
309 -4 199 -47 360 -197 408 -380 8 -33 15 -83 15 -112 l0 -53 382 0 381 0 -6
118 c-9 172 -44 299 -124 457 -154 304 -456 520 -845 604 -80 17 -338 45 -373
39 -5 0 -57 -4 -115 -8z"/>
</g>
</svg>
