<svg xmlns="http://www.w3.org/2000/svg" width="400.56" height="466.09" viewBox="0 0 400.56 466.09">
  <title>Asset 2</title>
  <g id="Layer_2" data-name="Layer 2">
    <g id="Layer_3" data-name="Layer 3">
      <path d="M241.14,368.56a86.6,86.6,0,0,0,27-14.12,64.23,64.23,0,0,0,18.05-22,56.34,56.34,0,0,0,5.6-28.64H400.51a134,134,0,0,1-14.32,64.75A159.71,159.71,0,0,1,344.9,420q-26.14,21.59-60.81,33.83a218.56,218.56,0,0,1-73.25,12.24q-52.29,0-91.72-17.64T53.54,400.1q-26.56-30.72-40-72T0,239.48V227q0-47.33,13.28-88.61t39.85-72q26.55-30.72,65.78-48.56T210,0q41.51,0,76.78,12.45t61,34.86a159.27,159.27,0,0,1,39.43,55q14.1,32.16,13.28,72H291.77a75.77,75.77,0,0,0-5-31.55,71.05,71.05,0,0,0-17-25.73,84.42,84.42,0,0,0-27-17.22,90.37,90.37,0,0,0-34.45-6.44q-27.39,0-45.24,11.21a81.22,81.22,0,0,0-28.22,29.88q-10.8,18.67-15.15,42.75A278.7,278.7,0,0,0,115.38,227v12.45a298.43,298.43,0,0,0,4.15,50.42q4.14,24.28,14.94,42.55a80.81,80.81,0,0,0,28.43,29.88q18.06,11.21,45.87,11.21A104.3,104.3,0,0,0,241.14,368.56Z"/>
    </g>
  </g>
</svg>
