<svg id="Layer_3" data-name="Layer 3" xmlns="http://www.w3.org/2000/svg" width="1024" height="1024" viewBox="0 0 1024 1024">
  <title>c</title>
  <path d="M552.86,647.51a86.37,86.37,0,0,0,27-14.11,64.27,64.27,0,0,0,18-22,56.32,56.32,0,0,0,5.6-28.64H712.23a134,134,0,0,1-14.31,64.75A160,160,0,0,1,656.62,699q-26.14,21.57-60.81,33.82A218.31,218.31,0,0,1,522.56,745q-52.29,0-91.72-17.63t-65.58-48.36q-26.56-30.7-40.05-72t-13.49-88.61V506q0-47.31,13.28-88.61t39.85-72q26.55-30.71,65.78-48.56T521.73,279q41.5,0,76.78,12.45t61,34.86a159.23,159.23,0,0,1,39.43,55q14.1,32.17,13.28,72H603.49a75.74,75.74,0,0,0-5-31.54,70.84,70.84,0,0,0-17-25.73,84.44,84.44,0,0,0-27-17.23,90.55,90.55,0,0,0-34.45-6.43q-27.39,0-45.24,11.21a81.22,81.22,0,0,0-28.22,29.88q-10.8,18.68-15.15,42.75A278.67,278.67,0,0,0,427.1,506v12.45a298.64,298.64,0,0,0,4.15,50.43q4.14,24.28,14.94,42.54a80.81,80.81,0,0,0,28.43,29.88q18.06,11.22,45.87,11.21A104.3,104.3,0,0,0,552.86,647.51Z"/>
</svg>
